<?xml version="1.0" encoding="UTF-8" standalone="no"?>

<svg
   width="84.667046mm"
   height="71.053619mm"
   viewBox="0 0 84.667046 71.05362"
   version="1.1"
   id="svg5"
   xmlns:sodipodi="http://sodipodi.sourceforge.net/DTD/sodipodi-0.dtd"
   xmlns="http://www.w3.org/2000/svg"
   xmlns:svg="http://www.w3.org/2000/svg"
>
  <sodipodi:namedview
     id="namedview7"
     pagecolor="#ffffff"
     bordercolor="#666666"
     borderopacity="1.0"
     showgrid="false"
  />
  <defs
     id="defs2" />
  <g
     id="layer1"
     transform="translate(-0.35186862,-1.0804232)">
    <g
       id="g18"
       transform="matrix(0.26458333,0,0,0.26458333,-0.254932,0.695468)">
      <path
         d="m 172.76271,211.76589 c -12.3,11.9 -24.4,23.7 -36.5,35.5 -4.2,4.1 -8.9,6.4 -15,6.1 -4.1,-0.2 -6.4,-2 -7.7,-5.9 -9.2,-28.6 -18.600002,-57.2 -27.800002,-85.9 -0.9,-2.8 -2.2,-4.1 -5,-5 -21.7,-6.6 -43.5,-13.4 -65.1,-20.3 -3.3,-1.1 -6.7000003,-2.4 -9.6000003,-4.4 -4.5,-3 -5.09999997,-7.9 -1.1,-11.5 3.7,-3.3 8.1000003,-6.1 12.7000003,-7.9 26.6,-10.5 53.3,-20.700002 80,-31.000002 67.700002,-26.1 135.400002,-52.3 203.100002,-78.3999998 12.9,-5 22.8,2 21.4,15.9999998 -0.9,8.9 -3.2,17.7 -5,26.5 -14.7,69.400002 -29.4,138.900002 -44.2,208.300002 -3.5,16.5 -15.1,20.8 -28.6,10.8 -22.7,-16.7 -45.4,-33.5 -68.1,-50.3 -1.1,-0.9 -2.2,-1.7 -3.5,-2.6 z m -51,21.1 c 0.3,-0.1 0.5,-0.1 0.8,-0.2 0.1,-0.7 0.3,-1.3 0.4,-1.9 1.5,-15.7 3,-31.5 4.3,-47.2 0.3,-3.5 1.5,-6 4.1,-8.4 20.9,-18.7 41.8,-37.6 62.6,-56.4 23.1,-20.800002 46.2,-41.600002 69.2,-62.500002 1.4,-1.3 2,-3.5 3,-5.3 -2.2,-0.2 -4.5,-1.1 -6.5,-0.6 -2.7,0.7 -5.2,2.3 -7.6,3.8 -50.9,32.1 -101.9,64.200002 -152.800002,96.300002 -2.9,1.8 -3.4,3.3 -2.3,6.5 3.800002,10.8 7.200002,21.7 10.700002,32.6 4.7,14.4 9.4,28.9 14.1,43.3 z"
         fill="#ffffff"
         id="logo"
         style="fill:#a7aaad;fill-opacity:1"
      />
    </g>
  </g>
</svg>
